<svg width="163" height="55" viewBox="0 0 163 55" fill="none" xmlns="http://www.w3.org/2000/svg">
<path d="M5.22 36C3.588 36 2.772 35.184 2.772 33.552V13.068C2.772 11.436 3.588 10.62 5.22 10.62H18.072C19.32 10.62 19.944 11.22 19.944 12.42C19.944 13.668 19.32 14.292 18.072 14.292H7.2V21.276H17.28C18.528 21.276 19.152 21.888 19.152 23.112C19.152 24.336 18.528 24.948 17.28 24.948H7.2V32.328H18.072C19.32 32.328 19.944 32.94 19.944 34.164C19.944 35.388 19.32 36 18.072 36H5.22ZM26.1245 36.288C24.6365 36.288 23.8925 35.52 23.8925 33.984V20.376C23.8925 18.864 24.6245 18.108 26.0885 18.108C27.5525 18.108 28.2845 18.864 28.2845 20.376V21.096C28.8125 20.136 29.5445 19.392 30.4805 18.864C31.4165 18.312 32.4965 18.036 33.7205 18.036C36.3605 18.036 38.0885 19.188 38.9045 21.492C39.4565 20.412 40.2485 19.572 41.2805 18.972C42.3125 18.348 43.4885 18.036 44.8085 18.036C48.7685 18.036 50.7485 20.448 50.7485 25.272V33.984C50.7485 35.52 49.9925 36.288 48.4805 36.288C46.9925 36.288 46.2485 35.52 46.2485 33.984V25.452C46.2485 24.108 46.0205 23.124 45.5645 22.5C45.1325 21.876 44.3885 21.564 43.3325 21.564C42.1565 21.564 41.2325 21.984 40.5605 22.824C39.8885 23.64 39.5525 24.78 39.5525 26.244V33.984C39.5525 35.52 38.8085 36.288 37.3205 36.288C35.8085 36.288 35.0525 35.52 35.0525 33.984V25.452C35.0525 24.108 34.8245 23.124 34.3685 22.5C33.9365 21.876 33.2045 21.564 32.1725 21.564C30.9965 21.564 30.0725 21.984 29.4005 22.824C28.7285 23.64 28.3925 24.78 28.3925 26.244V33.984C28.3925 35.52 27.6365 36.288 26.1245 36.288ZM61.1868 36.36C59.9148 36.36 58.7748 36.12 57.7668 35.64C56.7828 35.136 56.0028 34.464 55.4268 33.624C54.8748 32.784 54.5988 31.836 54.5988 30.78C54.5988 29.484 54.9348 28.464 55.6068 27.72C56.2788 26.952 57.3708 26.4 58.8828 26.064C60.3948 25.728 62.4228 25.56 64.9668 25.56H66.2268V24.804C66.2268 23.604 65.9628 22.74 65.4348 22.212C64.9068 21.684 64.0188 21.42 62.7708 21.42C62.0748 21.42 61.3188 21.504 60.5028 21.672C59.7108 21.84 58.8708 22.128 57.9828 22.536C57.4068 22.8 56.9268 22.836 56.5428 22.644C56.1588 22.428 55.8948 22.104 55.7508 21.672C55.6308 21.216 55.6548 20.76 55.8228 20.304C56.0148 19.848 56.3868 19.512 56.9388 19.296C58.0428 18.84 59.0988 18.516 60.1068 18.324C61.1388 18.132 62.0748 18.036 62.9148 18.036C65.4828 18.036 67.3908 18.636 68.6388 19.836C69.8868 21.012 70.5108 22.848 70.5108 25.344V33.984C70.5108 35.52 69.8148 36.288 68.4228 36.288C67.0068 36.288 66.2988 35.52 66.2988 33.984V33.192C65.8908 34.176 65.2428 34.956 64.3548 35.532C63.4668 36.084 62.4108 36.36 61.1868 36.36ZM62.1228 33.264C63.2988 33.264 64.2708 32.856 65.0388 32.04C65.8308 31.224 66.2268 30.192 66.2268 28.944V28.152H65.0028C62.7468 28.152 61.1748 28.332 60.2868 28.692C59.4228 29.028 58.9908 29.652 58.9908 30.564C58.9908 31.356 59.2668 32.004 59.8188 32.508C60.3708 33.012 61.1388 33.264 62.1228 33.264ZM76.7343 28.152C76.2063 28.152 75.7623 27.984 75.4023 27.648C75.0663 27.288 74.8983 26.856 74.8983 26.352C74.8983 25.824 75.0663 25.392 75.4023 25.056C75.7623 24.72 76.2063 24.552 76.7343 24.552H84.4023C84.9063 24.552 85.3263 24.72 85.6623 25.056C86.0223 25.392 86.2023 25.824 86.2023 26.352C86.2023 26.856 86.0223 27.288 85.6623 27.648C85.3263 27.984 84.9063 28.152 84.4023 28.152H76.7343ZM88.9841 36.252C88.3121 36.276 87.7841 36.096 87.4001 35.712C87.0161 35.328 86.8241 34.836 86.8241 34.236C86.8241 33.78 86.9681 33.384 87.2561 33.048C87.5201 32.688 87.9161 32.496 88.4441 32.472L89.5241 32.4C91.6601 32.256 92.7281 31.08 92.7281 28.872V12.672C92.7281 11.112 93.4961 10.332 95.0321 10.332C96.5681 10.332 97.3361 11.112 97.3361 12.672V28.836C97.3361 31.092 96.7361 32.844 95.5361 34.092C94.3361 35.34 92.5601 36.036 90.2081 36.18L88.9841 36.252ZM110.423 36.36C108.599 36.36 107.015 35.988 105.671 35.244C104.327 34.5 103.283 33.444 102.539 32.076C101.795 30.684 101.423 29.052 101.423 27.18C101.423 25.308 101.795 23.688 102.539 22.32C103.283 20.952 104.327 19.896 105.671 19.152C107.015 18.408 108.599 18.036 110.423 18.036C112.247 18.036 113.831 18.408 115.175 19.152C116.519 19.896 117.563 20.952 118.307 22.32C119.051 23.688 119.423 25.308 119.423 27.18C119.423 29.052 119.051 30.684 118.307 32.076C117.563 33.444 116.519 34.5 115.175 35.244C113.831 35.988 112.247 36.36 110.423 36.36ZM110.423 32.94C111.767 32.94 112.847 32.46 113.663 31.5C114.479 30.516 114.887 29.076 114.887 27.18C114.887 25.26 114.479 23.832 113.663 22.896C112.847 21.936 111.767 21.456 110.423 21.456C109.079 21.456 107.999 21.936 107.183 22.896C106.367 23.832 105.959 25.26 105.959 27.18C105.959 29.076 106.367 30.516 107.183 31.5C107.999 32.46 109.079 32.94 110.423 32.94ZM125.369 36.288C123.881 36.288 123.137 35.52 123.137 33.984V12.6C123.137 11.088 123.881 10.332 125.369 10.332C126.881 10.332 127.637 11.088 127.637 12.6V20.952C128.237 19.992 129.041 19.272 130.049 18.792C131.057 18.288 132.173 18.036 133.397 18.036C137.549 18.036 139.625 20.448 139.625 25.272V33.984C139.625 35.52 138.881 36.288 137.393 36.288C135.881 36.288 135.125 35.52 135.125 33.984V25.488C135.125 24.12 134.861 23.124 134.333 22.5C133.829 21.876 133.037 21.564 131.957 21.564C130.637 21.564 129.581 21.984 128.789 22.824C128.021 23.64 127.637 24.732 127.637 26.1V33.984C127.637 35.52 126.881 36.288 125.369 36.288ZM146.427 36.288C144.939 36.288 144.195 35.52 144.195 33.984V20.376C144.195 18.864 144.927 18.108 146.391 18.108C147.855 18.108 148.587 18.864 148.587 20.376V21.132C149.187 20.124 149.991 19.356 150.999 18.828C152.031 18.3 153.183 18.036 154.455 18.036C158.607 18.036 160.683 20.448 160.683 25.272V33.984C160.683 35.52 159.939 36.288 158.451 36.288C156.939 36.288 156.183 35.52 156.183 33.984V25.488C156.183 24.12 155.919 23.124 155.391 22.5C154.887 21.876 154.095 21.564 153.015 21.564C151.695 21.564 150.639 21.984 149.847 22.824C149.079 23.64 148.695 24.732 148.695 26.1V33.984C148.695 35.52 147.939 36.288 146.427 36.288Z" fill="white"/>
<path fill-rule="evenodd" clip-rule="evenodd" d="M100.635 46.0044C93.0476 51.5755 82.0493 54.5479 72.58 54.5479C59.3025 54.5479 47.3493 49.6561 38.3062 41.5204C37.5959 40.8805 38.2324 40.0087 39.0849 40.5069C48.8441 46.163 60.911 49.5656 73.3757 49.5656C81.7822 49.5656 91.0298 47.8331 99.5329 44.238C100.817 43.6944 101.892 45.0759 100.635 46.0044Z" fill="#FF9900"/>
<path fill-rule="evenodd" clip-rule="evenodd" d="M103.79 42.4093C102.824 41.1749 97.3786 41.8261 94.9345 42.1148C94.19 42.2055 94.0764 41.5599 94.747 41.0957C99.0838 38.0555 106.2 38.933 107.03 39.9521C107.86 40.9769 106.814 48.0822 102.738 51.4735C102.113 51.9944 101.516 51.717 101.795 51.0262C102.71 48.7503 104.762 43.6492 103.79 42.4093Z" fill="#FF9900"/>
</svg>
